<?xml version="1.0" encoding="utf-8"?>
<!-- Generator: Adobe Illustrator 28.3.0, SVG Export Plug-In . SVG Version: 6.00 Build 0)  -->
<svg version="1.1" id="Layer_1" xmlns="http://www.w3.org/2000/svg" xmlns:xlink="http://www.w3.org/1999/xlink" x="0px" y="0px"
	 viewBox="0 0 234 330" style="enable-background:new 0 0 234 330;" xml:space="preserve">
<style type="text/css">
	.st0{fill:#001660;}
</style>
<path class="st0" d="M233.5,166c0-33.4-14-63.5-36.5-84.8l-79.5,201.4C181.6,282.4,233.5,230.3,233.5,166L233.5,166z"/>
<path class="st0" d="M0.2,166c0,33.1,13.8,62.9,35.8,84.1l79.2-200.8C51.6,50.2,0.2,102.1,0.2,166z"/>
<path class="st0" d="M197,81.3L229.1,0h-94.3l-19.5,49.4c0.5,0,1,0,1.6,0C147.9,49.3,176.1,61.5,197,81.3z"/>
<path class="st0" d="M36.1,250.2L4.7,329.8H99l18.6-47c-0.2,0-0.4,0-0.7,0C85.5,282.8,57,270.3,36.1,250.2L36.1,250.2z"/>
</svg>
