<?xml version="1.0" encoding="utf-8"?>
<!-- Generator: Adobe Illustrator 28.3.0, SVG Export Plug-In . SVG Version: 6.00 Build 0)  -->
<svg version="1.1" id="Layer_1" xmlns="http://www.w3.org/2000/svg" xmlns:xlink="http://www.w3.org/1999/xlink" x="0px" y="0px"
	 viewBox="0 0 1218 216" style="enable-background:new 0 0 1218 216;" xml:space="preserve">
<style type="text/css">
	.st0{fill:#F5F1EE;}
</style>
<path class="st0" d="M270.9,163.1c6.9,6.8,15,12.1,24.3,15.9c9.3,3.9,19.2,5.8,29.7,5.8c11.6,0,22.1-2,31.3-6.1
	c9.2-4.1,17-9.5,23.4-16.3s11.4-14.7,14.8-23.7c3.4-9,5.2-18.5,5.2-28.5V99.7h-75.7v27h45.5c-2.7,9.1-7.7,16.4-15,21.9
	c-7.3,5.6-17.1,8.3-29.4,8.3c-6.6,0-12.9-1.2-18.8-3.7c-5.9-2.4-11-5.8-15.4-10.1c-4.4-4.3-7.9-9.4-10.5-15.3
	c-2.6-6-3.9-12.4-3.9-19.3c0-6.9,1.2-13.1,3.7-19c2.4-5.9,5.8-11,10.2-15.3c4.3-4.3,9.4-7.8,15.3-10.3c5.9-2.5,12.3-3.8,19.4-3.8
	c10.2,0,18.5,2.2,25.2,6.5s11.6,10.2,14.8,17.7h32.1c-2-7.4-5.2-14.4-9.4-20.7c-4.3-6.4-9.4-11.9-15.5-16.6
	c-6.1-4.7-12.9-8.3-20.5-10.9c-7.6-2.6-15.6-3.9-24.2-3.9c-11.8,0-22.5,2-32.3,5.9s-18.1,9.3-25,16.2c-6.9,6.8-12.2,14.9-16,24.2
	c-3.8,9.3-5.7,19.3-5.7,30s2,20.9,6.1,30.3C258.5,148.3,264,156.3,270.9,163.1L270.9,163.1z"/>
<path class="st0" d="M440.6,134.8c0-9.5,1.7-16.3,5.1-20.4c3.4-4.1,8.8-6.2,16.2-6.2h17.7v-27h-11.2c-6.9,0-12.7,1.5-17.3,4.4
	c-4.6,2.9-8.2,7-10.8,12.3V81.2h-27.6v101.6h27.8V134.8z"/>
<path class="st0" d="M522.1,107.9c4.1-2.8,9-4.2,14.7-4.2s10.2,1.3,14.4,3.8c4.2,2.5,7.2,6.3,9.1,11.3h-47.9
	C514.7,114.3,518,110.7,522.1,107.9L522.1,107.9z M498.2,169.4c4.6,4.7,10.1,8.5,16.5,11.3c6.4,2.8,13.6,4.2,21.6,4.2
	c13.1,0,23.9-3.2,32.4-9.5c8.4-6.4,14.7-15.2,18.8-26.4h-29.6c-1.8,3.8-4.3,6.8-7.7,8.9c-3.4,2.2-7.9,3.2-13.6,3.2
	c-7,0-12.8-1.8-17.1-5.4c-4.4-3.6-7.3-8.4-8.8-14.3h78.6v-8.9c0-7.3-1.3-14.2-4-20.6c-2.6-6.4-6.3-12.1-11-17
	c-4.7-4.9-10.2-8.7-16.6-11.5c-6.4-2.8-13.4-4.2-21-4.2s-14.1,1.4-20.5,4.2c-6.4,2.8-11.9,6.5-16.7,11.3
	c-4.8,4.7-8.6,10.3-11.3,16.8c-2.7,6.4-4.1,13.3-4.1,20.6c0,7.3,1.2,14.2,3.7,20.6C490.1,159.1,493.6,164.6,498.2,169.4L498.2,169.4
	z"/>
<path class="st0" d="M636.6,107.9c4.1-2.8,9-4.2,14.7-4.2s10.2,1.3,14.4,3.8c4.2,2.5,7.2,6.3,9.1,11.3h-47.9
	C629.2,114.3,632.4,110.7,636.6,107.9L636.6,107.9z M612.7,169.4c4.6,4.7,10.1,8.5,16.5,11.3c6.4,2.8,13.6,4.2,21.6,4.2
	c13.1,0,23.9-3.2,32.4-9.5c8.4-6.4,14.7-15.2,18.8-26.4h-29.6c-1.8,3.8-4.3,6.8-7.7,8.9c-3.4,2.2-7.9,3.2-13.6,3.2
	c-7,0-12.8-1.8-17.1-5.4c-4.4-3.6-7.3-8.4-8.8-14.3h78.6v-8.9c0-7.3-1.3-14.2-4-20.6s-6.3-12.1-11-17c-4.7-4.9-10.2-8.7-16.6-11.5
	c-6.4-2.8-13.4-4.2-21-4.2c-7.6,0-14.1,1.4-20.5,4.2c-6.4,2.8-11.9,6.5-16.7,11.3c-4.8,4.7-8.6,10.3-11.3,16.8
	c-2.7,6.4-4.1,13.3-4.1,20.6c0,7.3,1.2,14.2,3.7,20.6C604.6,159.1,608.1,164.6,612.7,169.4L612.7,169.4z"/>
<path class="st0" d="M742.8,127.3c0-8.5,1.9-14.7,5.7-18.6c3.8-3.9,8.3-5.8,13.6-5.8c6.2,0,10.9,1.9,14,5.6c3.1,3.7,4.7,9,4.7,15.9
	v58.3H809v-62c0-13.1-3.4-23.4-10.2-30.7s-16.2-11-28.2-11c-5.8,0-11.1,1.2-15.9,3.5c-4.8,2.4-8.8,5.7-12.1,9.9V81.2H715v101.6h27.8
	V127.3L742.8,127.3z"/>
<polygon class="st0" points="906,155.8 852.4,155.8 852.4,34.5 824.2,34.5 824.2,182.8 906,182.8 "/>
<polygon class="st0" points="998.6,81.2 969.8,81.2 946.4,143.8 921.4,81.2 892.2,81.2 932.6,178.3 917.4,216 945.1,216 "/>
<path class="st0" d="M1063.3,79.2c-5.8,0-11.1,1.2-15.9,3.5c-4.8,2.4-8.8,5.7-12.1,9.9V81.2h-27.6v101.6h27.8v-55.5
	c0-8.5,1.9-14.7,5.7-18.6c3.8-3.9,8.3-5.8,13.6-5.8c6.2,0,10.9,1.9,14,5.6s4.7,9,4.7,15.9v58.3h28.2v-62c0-13.1-3.4-23.4-10.2-30.7
	C1084.8,82.8,1075.4,79.2,1063.3,79.2L1063.3,79.2z"/>
<path class="st0" d="M1141.3,118.8c2.3-4.5,5.5-8.1,9.6-10.9c4.1-2.8,9-4.2,14.7-4.2c5.7,0,10.2,1.3,14.4,3.8
	c4.2,2.5,7.2,6.3,9.1,11.3H1141.3L1141.3,118.8z M1218,132.4c0-7.3-1.3-14.2-4-20.6s-6.3-12.1-11-17c-4.7-4.9-10.2-8.7-16.6-11.5
	c-6.4-2.8-13.4-4.2-21-4.2s-14.1,1.4-20.5,4.2c-6.4,2.8-11.9,6.5-16.7,11.3c-4.8,4.7-8.6,10.3-11.3,16.8c-2.7,6.4-4.1,13.3-4.1,20.6
	s1.2,14.2,3.7,20.6c2.4,6.4,6,12,10.6,16.8c4.6,4.7,10.1,8.5,16.5,11.3c6.4,2.8,13.6,4.2,21.6,4.2c13.1,0,23.9-3.2,32.4-9.5
	c8.4-6.4,14.7-15.2,18.8-26.4h-29.6c-1.8,3.8-4.3,6.8-7.7,8.9c-3.4,2.2-7.9,3.2-13.6,3.2c-7,0-12.8-1.8-17.1-5.4
	c-4.4-3.6-7.3-8.4-8.8-14.3h78.6V132.4L1218,132.4z"/>
<path class="st0" d="M152.6,108.6c0-21.8-9.2-41.5-23.9-55.4L76.7,185C118.7,184.7,152.6,150.7,152.6,108.6L152.6,108.6z"/>
<path class="st0" d="M0,108.6c0,21.6,9,41.1,23.4,55L75.3,32.3C33.6,32.9,0,66.8,0,108.6z"/>
<path class="st0" d="M128.7,53.2l21-53.2H88L75.3,32.3c0.3,0,0.7,0,1,0C96.6,32.3,115.1,40.2,128.7,53.2z"/>
<path class="st0" d="M23.4,163.7L2.9,215.8h61.7L76.7,185c-0.1,0-0.3,0-0.4,0C55.8,185,37.1,176.9,23.4,163.7L23.4,163.7z"/>
</svg>
