<svg width="138" height="137" viewBox="0 0 138 137" fill="none" xmlns="http://www.w3.org/2000/svg">
<circle cx="69.3908" cy="67.9773" r="43.0808" fill="#D82020"/>
<path d="M36.2695 9.42188H49.3057V18.3271H19.4912V47.4951H10.5859V35.6221H0V0H36.2695V9.42188Z" fill="#D82020"/>
<path d="M100.855 9.42188H87.8188V18.3271H117.633V47.4951H126.539V35.6221H137.125V0H100.855V9.42188Z" fill="#D82020"/>
<path d="M10.3271 100.541L10.3271 87.5044L19.2324 87.5044L19.2324 117.319L48.4004 117.319L48.4004 126.224L36.5273 126.224L36.5273 136.81L0.905273 136.81L0.905272 100.541L10.3271 100.541Z" fill="#D82020"/>
<path d="M126.797 100.541L126.797 87.5044L117.892 87.5044L117.892 117.319L88.7241 117.319L88.7241 126.224L100.597 126.224L100.597 136.81L136.219 136.81L136.219 100.541L126.797 100.541Z" fill="#D82020"/>
</svg>
